<svg xmlns="http://www.w3.org/2000/svg" width="169" height="41" fill="none" viewBox="0 0 169 41"><path fill="#000a3a" d="M19.609 8.56088e-05C19.6496 5.73581e-05 19.6903 2.91069e-05 19.7321 0C20.8034 0.00117611 21.8385 0.112394 22.885 0.345505C22.928 0.35497 22.9709 0.364436 23.0151 0.374188C25.4848 0.932279 27.8469 2.0297 30.1228 3.11174C30.1998 3.14832 30.2768 3.18477 30.3539 3.22122C31.1425 3.59442 31.9231 3.98315 32.7031 4.37376C33.8356 4.94028 34.9844 5.47192 36.1364 5.99782C36.1894 6.02203 36.1894 6.02203 36.2435 6.04672C39.3673 7.47164 42.6074 8.51623 49.7113 9.58809C49.7436 9.59057 49.776 9.59305 49.8094 9.5956C50.7415 9.66565 51.6714 9.69096 52.6061 9.69015C52.6605 9.69012 52.7149 9.6901 52.771 9.69007C53.679 9.68893 54.5825 9.67134 55.4877 9.59856C55.5372 9.59459 55.5372 9.59459 55.5876 9.59055C59.1141 9.30298 62.4948 8.46596 65.8364 7.33763C65.9177 7.31024 65.9989 7.28284 66.0802 7.25545C66.8534 6.99465 67.6264 6.73321 68.3985 6.46918C71.7833 5.312 75.2137 4.30785 78.9196 4.07185C78.9583 4.06949 78.997 4.06713 79.0369 4.06469C82.5185 3.8623 86.3121 4.33309 89.1842 6.45838C89.2095 6.4771 89.2349 6.49581 89.261 6.51509C89.6356 6.79433 89.9836 7.0979 90.32 7.42137C90.3461 7.44645 90.3723 7.47152 90.3992 7.49736C90.7318 7.81842 91.0477 8.14312 91.3297 8.50997C91.3483 8.53372 91.367 8.55747 91.3862 8.58195C93.1886 10.8761 93.9585 13.6149 93.6434 16.507C93.316 19.0565 92.0828 21.4963 90.0387 23.1092C89.6867 23.3782 89.312 23.6193 88.9421 23.863C88.9047 23.8877 88.8672 23.9124 88.8287 23.9378C88.7252 23.9993 88.6241 24.0442 88.5111 24.0852C88.7225 24.4635 88.9461 24.833 89.176 25.2004C89.346 25.4723 89.5142 25.7453 89.6811 26.0191C89.8902 26.3618 90.1007 26.7036 90.3121 27.0449C90.5658 27.4544 90.8173 27.8651 91.0677 28.2766C91.2586 28.5901 91.4507 28.9028 91.6452 29.2142C91.8551 29.5504 92.0622 29.8883 92.2683 30.2269C92.5313 30.6589 92.7961 31.0896 93.0625 31.5196C93.267 31.8498 93.4701 32.181 93.6723 32.5127C93.8066 32.7326 93.9417 32.9521 94.0777 33.171C94.093 33.1957 94.1084 33.2203 94.1241 33.2458C94.1988 33.366 94.2735 33.4862 94.3484 33.6062C94.3754 33.6495 94.4023 33.6929 94.43 33.7375C94.4538 33.7757 94.4776 33.8139 94.5021 33.8532C94.5723 33.9721 94.6336 34.0939 94.6951 34.2176C93.7663 34.2254 92.8375 34.2313 91.9087 34.2349C91.4774 34.2366 91.0461 34.239 90.6149 34.2428C90.239 34.2462 89.8632 34.2483 89.4873 34.2491C89.2883 34.2495 89.0893 34.2505 88.8902 34.253C88.7029 34.2552 88.5156 34.2559 88.3283 34.2554C88.2595 34.2555 88.1907 34.2562 88.122 34.2575C87.6015 34.2667 87.6015 34.2667 87.4572 34.1444C87.4018 34.058 87.3661 33.9794 87.3332 33.8826C87.3127 33.8457 87.2921 33.8088 87.271 33.7708C87.2542 33.7381 87.2373 33.7053 87.22 33.6716C87.2005 33.634 87.181 33.5964 87.1609 33.5576C87.1405 33.5181 87.1202 33.4785 87.0992 33.4377C86.9296 33.111 86.7568 32.7865 86.5786 32.4643C86.3736 32.0931 86.1763 31.7182 85.9809 31.3419C85.8323 31.0563 85.68 30.773 85.5243 30.4912C85.3443 30.1656 85.1698 29.8375 84.9984 29.5073C84.8062 29.137 84.6091 28.77 84.4073 28.4048C84.2351 28.0922 84.0694 27.7765 83.9046 27.4599C83.7616 27.1862 83.6149 26.9148 83.4656 26.6445C83.2606 26.2732 83.0633 25.8984 82.8679 25.5221C82.7193 25.2365 82.567 24.9532 82.4112 24.6714C82.2313 24.3458 82.0568 24.0177 81.8854 23.6875C81.6933 23.3174 81.4963 22.9506 81.2947 22.5856C81.1189 22.2666 80.9491 21.9447 80.7809 21.6216C80.687 21.4414 80.5928 21.2614 80.4958 21.0828C80.4799 21.0534 80.464 21.024 80.4476 20.9938C80.4184 20.9403 80.3892 20.8869 80.3597 20.8336C80.2658 20.6611 80.2658 20.6611 80.2658 20.5682C80.2932 20.5643 80.3206 20.5603 80.3489 20.5562C82.0993 20.302 82.0993 20.302 83.8442 20.0135C83.9003 20.0038 83.9003 20.0038 83.9575 19.9939C84.3473 19.9264 84.7325 19.8491 85.1156 19.7503C85.1479 19.7421 85.1802 19.7338 85.2135 19.7253C86.1586 19.4728 86.8878 18.7979 87.3719 17.9693C88.0316 16.7968 88.2465 15.4604 87.8968 14.1512C87.564 12.9874 86.8753 11.961 85.9029 11.2315C85.8798 11.2141 85.8568 11.1967 85.833 11.1787C84.301 10.0444 82.31 9.73665 80.4472 9.74772C80.4011 9.74785 80.355 9.74797 80.3075 9.74811C79.4435 9.7516 78.5964 9.80935 77.7417 9.93351C77.7113 9.93788 77.681 9.94224 77.6497 9.94673C75.0408 10.3249 72.5203 11.1112 70.0153 11.9058C66.1923 13.1184 62.3453 14.1969 55.706 14.9892C55.6719 14.9917 55.6379 14.9942 55.6029 14.9967C55.3683 15.0135 55.1336 15.0282 54.8988 15.0415C54.8642 15.0436 54.8296 15.0456 54.794 15.0477C54.0021 15.0926 53.2097 15.0918 52.4168 15.0913C52.365 15.0912 52.365 15.0912 52.3122 15.0912C51.2982 15.0908 50.2862 15.0874 49.2748 15.0074C49.1706 14.9991 49.0665 14.9912 48.9623 14.9833C46.6816 14.8076 44.4225 14.4676 42.1942 13.9529C42.1476 13.9422 42.1476 13.9422 42.1001 13.9312C40.0243 13.4498 37.9753 12.8082 36.0102 11.9851C35.9606 11.9645 35.911 11.9438 35.8599 11.9226C34.5067 11.3577 33.1918 10.7118 31.8797 10.0591C31.8534 10.0461 31.8272 10.033 31.8001 10.0195C31.2607 9.75134 30.7222 9.48187 30.1895 9.20072C29.8405 9.01675 29.488 8.83992 29.1347 8.66436C29.1003 8.64724 29.0659 8.63012 29.0304 8.61248C28.4036 8.30115 27.7724 8.0015 27.1339 7.71445C27.0792 7.68965 27.0245 7.66482 26.9698 7.63998C26.0436 7.2197 25.1045 6.84427 24.1471 6.50025C24.0984 6.48271 24.0497 6.46517 23.9995 6.4471C23.0105 6.09482 21.9911 5.84455 20.9499 5.70474C20.9194 5.70045 20.8889 5.69617 20.8575 5.69175C18.6639 5.42656 16.3151 5.96806 14.2988 6.81902C14.0619 6.91894 14.0619 6.91894 13.9245 6.91894C13.818 6.67994 13.7117 6.44083 13.6056 6.20162C13.5696 6.12033 13.5334 6.03907 13.4972 5.95785C13.445 5.84079 13.3931 5.72363 13.3412 5.60645C13.325 5.57041 13.3089 5.53437 13.2923 5.49725C13.2067 5.30335 13.136 5.11445 13.0832 4.90923C14.5797 4.19746 14.5797 4.19746 15.0183 4.19746C15.0031 4.15007 14.9879 4.10268 14.9723 4.05386C14.9526 3.99182 14.9328 3.92978 14.9131 3.86774C14.8981 3.82086 14.8981 3.82086 14.8827 3.77304C14.808 3.53704 14.808 3.53704 14.808 3.44381C13.8617 3.76516 13.8617 3.76516 12.9404 4.14954C12.8308 4.19746 12.8308 4.19746 12.7466 4.19746C12.6366 3.91114 12.5269 3.62472 12.4175 3.33815C12.3668 3.20508 12.3159 3.07205 12.2647 2.93912C12.206 2.78625 12.1476 2.63322 12.0893 2.48017C12.0709 2.4325 12.0525 2.38482 12.0336 2.3357C12.0167 2.29129 11.9999 2.24687 11.9825 2.20111C11.9601 2.14254 11.9601 2.14254 11.9372 2.08278C11.9053 1.9784 11.9053 1.9784 11.9053 1.81092C14.1186 0.413084 17.0364 0.00170524 19.609 8.56088e-05ZM18.7542 2.66619C18.724 2.67011 18.6938 2.67403 18.6627 2.67807C18.6314 2.68239 18.6 2.6867 18.5676 2.69115C18.5176 2.69782 18.5176 2.69782 18.4665 2.70463C18.3964 2.71403 18.3264 2.72353 18.2564 2.73314C18.1499 2.74772 18.0434 2.76182 17.9369 2.77587C17.8684 2.78511 17.8 2.79438 17.7315 2.80368C17.6843 2.8099 17.6843 2.8099 17.6362 2.81624C17.4442 2.84297 17.2648 2.88431 17.0796 2.94139C17.0926 3.05132 17.1058 3.16121 17.1191 3.2711C17.1246 3.31798 17.1246 3.31798 17.1302 3.3658C17.1483 3.53573 17.1483 3.53573 17.2058 3.69503C17.6512 3.6443 18.0962 3.59072 18.5411 3.53622C18.6028 3.52869 18.6645 3.52121 18.7262 3.51379C18.814 3.5032 18.9018 3.49242 18.9896 3.48159C19.041 3.47533 19.0924 3.46907 19.1454 3.46261C19.2643 3.45056 19.2643 3.45056 19.3513 3.40194C19.3235 3.15324 19.2958 2.90454 19.2672 2.6483C19.0072 2.64562 19.0072 2.64562 18.7542 2.66619ZM21.623 2.6483C21.5813 2.91082 21.5397 3.17334 21.4968 3.44381C21.572 3.4565 21.6473 3.46918 21.7249 3.48225C22.2776 3.57701 22.823 3.68063 23.3652 3.82407C23.5037 3.86596 23.5037 3.86596 23.6002 3.8625C23.6354 3.75264 23.6704 3.64273 23.7053 3.53278C23.7154 3.50154 23.7254 3.47029 23.7357 3.43809C23.7906 3.27665 23.7906 3.27665 23.8105 3.10886C23.4263 2.9835 23.042 2.88754 22.6458 2.80793C22.5675 2.79161 22.5675 2.79161 22.4876 2.77497C22.1993 2.71619 21.9164 2.67136 21.623 2.6483ZM25.9981 3.77877C25.9148 4.02747 25.8315 4.27617 25.7456 4.53241C26.0187 4.64101 26.292 4.74909 26.5655 4.8567C26.6585 4.8934 26.7515 4.93024 26.8445 4.96722C26.9779 5.02028 27.1115 5.07283 27.2451 5.12528C27.2868 5.14198 27.3285 5.15868 27.3714 5.17589C27.4102 5.19098 27.4489 5.20607 27.4888 5.22162C27.54 5.24184 27.54 5.24184 27.5921 5.26247C27.6877 5.29656 27.6877 5.29656 27.807 5.24418C27.8576 5.1473 27.9004 5.05456 27.9411 4.95372C27.9525 4.92665 27.964 4.89958 27.9758 4.87169C28.0386 4.7278 28.0386 4.7278 28.0594 4.57428C27.538 4.35355 27.0152 4.13864 26.4845 3.94101C26.4406 3.92469 26.3968 3.90836 26.3517 3.89154C26.1794 3.81526 26.1794 3.81526 25.9981 3.77877ZM30.1628 5.53726C30.0517 5.77215 29.9407 6.00704 29.8262 6.24904C30.052 6.36665 30.052 6.36665 30.2777 6.48414C30.4858 6.5929 30.6923 6.70414 30.8975 6.8182C30.9428 6.84317 30.988 6.86815 31.0346 6.89389C31.1239 6.94329 31.213 6.99311 31.3018 7.04335C31.3428 7.06593 31.3838 7.08851 31.426 7.11177C31.4623 7.13213 31.4986 7.15248 31.5361 7.17346C31.6318 7.21898 31.6318 7.21898 31.7273 7.20487C31.8561 7.14615 31.9007 7.02138 31.9612 6.90063C31.9811 6.86302 31.9811 6.86302 32.0015 6.82466C32.0747 6.69037 32.0747 6.69037 32.0979 6.54212C31.6121 6.27588 31.1249 6.01277 30.6334 5.75708C30.5913 5.7351 30.5491 5.71312 30.5057 5.69047C30.4669 5.67035 30.4281 5.65024 30.3881 5.62951C30.3537 5.61166 30.3192 5.59381 30.2838 5.57541C30.2132 5.53422 30.2132 5.53422 30.1628 5.53726ZM78.6143 6.57728C78.5778 6.5809 78.5414 6.58452 78.5039 6.58825C78.4273 6.59589 78.3507 6.6036 78.2741 6.61137C78.1572 6.62323 78.0402 6.63483 77.9233 6.64639C77.8486 6.65387 77.774 6.66136 77.6993 6.66887C77.6645 6.67232 77.6297 6.67577 77.5938 6.67932C77.4306 6.69603 77.271 6.7153 77.1107 6.75147C77.1167 6.83696 77.1228 6.92244 77.1291 7.00791C77.1325 7.05552 77.1359 7.10312 77.1394 7.15217C77.1518 7.28552 77.172 7.41508 77.1948 7.54698C77.4327 7.5239 77.6707 7.50082 77.9086 7.47772C77.9894 7.46989 78.0702 7.46205 78.151 7.45421C78.2677 7.44289 78.3845 7.43156 78.5012 7.42023C78.5368 7.41678 78.5723 7.41333 78.609 7.40978C78.8528 7.38611 79.0965 7.36199 79.3403 7.33763C79.3414 7.2443 79.3422 7.15097 79.3429 7.05763C79.3434 7.00566 79.3439 6.95368 79.3444 6.90013C79.3409 6.77398 79.328 6.66426 79.2982 6.54212C79.0677 6.538 78.8435 6.5539 78.6143 6.57728ZM81.654 6.58399C81.5846 6.72214 81.5959 6.87671 81.5883 7.02885C81.5865 7.06242 81.5847 7.09599 81.5828 7.13058C81.5783 7.21354 81.5741 7.29652 81.5699 7.3795C81.6376 7.39026 81.6376 7.39026 81.7068 7.40123C81.8759 7.42812 82.045 7.45515 82.2141 7.48223C82.287 7.49389 82.3599 7.5055 82.4328 7.51707C82.5382 7.5338 82.6436 7.55068 82.7489 7.56759C82.781 7.57265 82.8131 7.57771 82.8462 7.58293C83.0393 7.61408 83.2289 7.65239 83.419 7.69836C83.518 7.71961 83.518 7.71961 83.6733 7.71445C83.7015 7.61245 83.7295 7.51039 83.7574 7.40829C83.7695 7.36493 83.7695 7.36493 83.7817 7.32071C83.8154 7.19704 83.8416 7.08953 83.8416 6.96081C82.7602 6.68562 82.7602 6.68562 81.654 6.58399ZM74.244 7.29004C74.2116 7.29811 74.1793 7.30617 74.1459 7.31448C74.0777 7.33156 74.0095 7.34877 73.9413 7.36612C73.8381 7.39237 73.7348 7.41815 73.6314 7.44386C73.3146 7.52324 73.0014 7.6045 72.6935 7.71445C72.6988 7.74336 72.704 7.77226 72.7094 7.80204C72.7219 7.87097 72.7344 7.93991 72.7469 8.00885C72.7863 8.16811 72.844 8.31529 72.9039 8.4681C73.5935 8.31097 74.2791 8.13739 74.9652 7.96567C74.9593 7.89991 74.9532 7.83416 74.947 7.76843C74.9436 7.73181 74.9402 7.6952 74.9367 7.65748C74.9179 7.50411 74.8805 7.36078 74.839 7.21203C74.6302 7.20231 74.4448 7.2386 74.244 7.29004ZM34.1172 7.63072C34.0597 7.73251 34.0028 7.83457 33.9463 7.93688C33.9299 7.96579 33.9135 7.99469 33.8966 8.02446C33.8547 8.10087 33.8173 8.17973 33.7806 8.25875C33.8087 8.38407 33.8087 8.38407 33.887 8.4291C33.9147 8.4427 33.9424 8.4563 33.9709 8.47031C34.0022 8.48596 34.0335 8.50161 34.0658 8.51773C34.0999 8.53422 34.134 8.55071 34.1691 8.5677C34.204 8.58498 34.239 8.60226 34.2749 8.62007C34.3869 8.67535 34.4992 8.73003 34.6115 8.78473C34.6865 8.82174 34.7616 8.85878 34.8366 8.89586C35.2785 9.14811 35.2785 9.14811 35.7578 9.26361C35.9036 8.93201 35.9036 8.93201 36.0523 8.5937C35.6127 8.35812 35.1708 8.13514 34.7186 7.92462C34.5162 7.83038 34.3161 7.73199 34.1172 7.63072ZM86.0712 7.75632C85.9601 7.97739 85.849 8.19846 85.7346 8.42623C85.8566 8.51727 85.9543 8.58245 86.0874 8.64866C86.1231 8.6667 86.1588 8.68474 86.1956 8.70333C86.2335 8.72242 86.2714 8.74151 86.3104 8.76118C86.6487 8.93303 86.9683 9.11955 87.2772 9.3399C87.4221 9.44721 87.4221 9.44721 87.594 9.45774C87.6945 9.36686 87.7699 9.26911 87.8485 9.15894C87.8783 9.11792 87.908 9.0769 87.9386 9.03464C88.0138 8.93781 88.0138 8.93781 88.0063 8.84492C87.9165 8.77702 87.8272 8.71497 87.7328 8.65389C87.6903 8.6261 87.6903 8.6261 87.647 8.59774C86.8976 8.05803 86.8976 8.05803 86.0712 7.75632ZM70.2783 8.4432C70.2389 8.45607 70.1994 8.46894 70.1588 8.4822C69.9785 8.54157 69.7984 8.60133 69.6183 8.66137C69.5231 8.69299 69.4278 8.72434 69.3323 8.75541C69.1953 8.80008 69.0586 8.84562 68.9219 8.89137C68.879 8.90516 68.8361 8.91894 68.7919 8.93315C68.7327 8.95325 68.7327 8.95325 68.6723 8.97375C68.62 8.99105 68.62 8.99105 68.5666 9.00869C68.4804 9.04749 68.4804 9.04749 68.4515 9.13342C68.4402 9.28026 68.4977 9.41018 68.5472 9.54622C68.5574 9.57542 68.5676 9.60462 68.5782 9.63471C68.6034 9.70653 68.6291 9.77817 68.655 9.84977C68.6982 9.83543 68.7415 9.82109 68.786 9.80631C69.5867 9.54066 69.5867 9.54066 69.6884 9.50699C69.7551 9.48481 69.8219 9.46254 69.8886 9.44019C70.0352 9.39115 70.1817 9.34369 70.3299 9.29951C70.3757 9.28572 70.4214 9.27193 70.4685 9.25772C70.5078 9.24648 70.547 9.23524 70.5875 9.22366C70.6805 9.18798 70.6805 9.18798 70.7108 9.10087C70.72 8.95401 70.6633 8.82398 70.6138 8.68791C70.5985 8.64411 70.5985 8.64411 70.5828 8.59943C70.5576 8.5276 70.5319 8.45596 70.506 8.38436C70.4273 8.38436 70.3523 8.41903 70.2783 8.4432ZM38.1136 9.47295C38.0713 9.57491 38.0293 9.67697 37.9874 9.77912C37.9754 9.80802 37.9634 9.83692 37.951 9.8667C37.8995 9.99278 37.8612 10.0892 37.8612 10.2266C38.5401 10.5058 39.2227 10.7583 39.9226 10.9802C39.959 10.8792 39.9949 10.7781 40.0304 10.6767C40.0459 10.6339 40.0459 10.6339 40.0618 10.5902C40.0993 10.482 40.1328 10.3815 40.1331 10.2663C40.0635 10.1319 39.9297 10.1099 39.7931 10.0658C39.7627 10.0554 39.7323 10.045 39.701 10.0343C39.6033 10.0009 39.5053 9.96849 39.4072 9.93613C39.3114 9.90382 39.2156 9.87132 39.1198 9.8388C39.057 9.81752 38.9943 9.79632 38.9315 9.7752C38.6558 9.68207 38.3843 9.57982 38.1136 9.47295ZM65.9998 9.84795C65.9651 9.85774 65.9304 9.86753 65.8947 9.87762C65.8574 9.88856 65.82 9.8995 65.7816 9.91078C65.7238 9.9273 65.7238 9.9273 65.6648 9.94415C65.5832 9.96754 65.5016 9.99109 65.4201 10.0148C65.2957 10.051 65.1711 10.0867 65.0465 10.1223C64.9673 10.1451 64.888 10.1679 64.8087 10.1908C64.7716 10.2015 64.7344 10.2122 64.6961 10.2232C64.5257 10.2729 64.3592 10.3238 64.1958 10.3941C64.2079 10.4648 64.2202 10.5354 64.2326 10.606C64.2394 10.6454 64.2463 10.6847 64.2533 10.7253C64.2828 10.8686 64.3231 11.0072 64.3641 11.1477C64.8618 11.0368 65.3506 10.9062 65.8391 10.7604C65.9047 10.741 65.9704 10.7216 66.036 10.7022C66.1939 10.6555 66.3518 10.6086 66.5095 10.5615C66.4777 10.4436 66.4452 10.3259 66.4123 10.2083C66.3988 10.1579 66.3988 10.1579 66.3851 10.1065C66.376 10.0745 66.3669 10.0425 66.3575 10.0096C66.3453 9.96516 66.3453 9.96516 66.3328 9.91987C66.3217 9.89674 66.3106 9.87361 66.2992 9.84977C66.1624 9.80439 66.1325 9.80978 65.9998 9.84795ZM89.434 10.7421C89.4106 10.759 89.3873 10.7759 89.3632 10.7934C89.2465 10.8804 89.1893 10.9232 89.1421 11.064C89.2011 11.1618 89.2619 11.2518 89.3288 11.344C89.6401 11.7899 89.8803 12.2705 90.0676 12.7806C90.3397 12.732 90.5765 12.6498 90.8248 12.5294C90.6325 11.8712 90.2889 11.2892 89.8993 10.729C89.8758 10.6948 89.8522 10.6605 89.8279 10.6252C89.8008 10.5937 89.8008 10.5937 89.7731 10.5615C89.6344 10.5615 89.5409 10.6618 89.434 10.7421ZM42.3204 10.8546C42.2921 10.9488 42.2641 11.043 42.2363 11.1372C42.2207 11.1897 42.2051 11.2422 42.189 11.2962C42.1453 11.443 42.1453 11.443 42.1522 11.6083C42.5777 11.7268 43.0042 11.8266 43.4373 11.9136C43.5344 11.9331 43.6314 11.953 43.7285 11.9728C43.7905 11.9854 43.8525 11.998 43.9146 12.0106C43.9435 12.0165 43.9723 12.0224 44.0021 12.0284C44.1487 12.0586 44.1487 12.0586 44.2976 12.0688C44.3189 11.9756 44.3399 11.8822 44.3607 11.7888C44.3724 11.7369 44.3842 11.6849 44.3962 11.6313C44.4195 11.5059 44.4261 11.3997 44.4238 11.2733C44.1446 11.2135 43.8653 11.1539 43.586 11.0944C43.491 11.0742 43.3959 11.0539 43.3009 11.0335C43.1645 11.0043 43.028 10.9752 42.8915 10.9462C42.8489 10.9371 42.8063 10.9279 42.7624 10.9185C42.7228 10.9101 42.6832 10.9017 42.6425 10.8931C42.5902 10.8819 42.5902 10.8819 42.5369 10.8705C42.4412 10.851 42.4412 10.851 42.3204 10.8546ZM61.5504 11.0138C61.5131 11.022 61.4757 11.0302 61.4372 11.0387C61.3172 11.0652 61.1974 11.092 61.0775 11.1189C60.9977 11.1366 60.9178 11.1542 60.8379 11.1718C60.5119 11.244 60.1865 11.3171 59.8628 11.3989C59.8759 11.4853 59.889 11.5716 59.9022 11.658C59.9096 11.7061 59.9169 11.7542 59.9244 11.8037C59.9433 11.9208 59.9646 12.0366 59.989 12.1526C60.2746 12.13 60.5488 12.0872 60.8281 12.0242C60.8657 12.0159 60.9034 12.0076 60.9423 11.999C61.061 11.9728 61.1797 11.9462 61.2984 11.9197C61.3795 11.9017 61.4607 11.8837 61.5419 11.8658C61.7395 11.8221 61.937 11.7781 62.1345 11.7339C62.1279 11.6735 62.1213 11.6132 62.1147 11.5528C62.1091 11.5024 62.1091 11.5024 62.1035 11.451C62.0914 11.3486 62.0748 11.2485 62.053 11.1477C62.0465 11.1166 62.0401 11.0855 62.0334 11.0535C61.9633 10.8494 61.7094 10.9778 61.5504 11.0138ZM46.6534 11.692C46.6392 11.7705 46.6252 11.849 46.6114 11.9275C46.6036 11.9712 46.5958 12.015 46.5877 12.06C46.5698 12.1905 46.5661 12.3142 46.5693 12.4457C46.9873 12.5263 47.4061 12.5903 47.8287 12.6419C47.8944 12.6502 47.8944 12.6502 47.9614 12.6586C48.2279 12.6901 48.4885 12.7039 48.7568 12.6969C48.7893 12.4429 48.803 12.1992 48.7989 11.9432C48.7094 11.8987 48.6466 11.8892 48.5477 11.8774C48.4961 11.8711 48.4961 11.8711 48.4434 11.8647C48.4061 11.8603 48.3688 11.856 48.3304 11.8515C48.292 11.8469 48.2536 11.8423 48.2141 11.8376C48.1326 11.8279 48.0512 11.8183 47.9697 11.8088C47.8457 11.7942 47.7217 11.7793 47.5978 11.7644C47.5186 11.755 47.4394 11.7457 47.3602 11.7363C47.3049 11.7297 47.3049 11.7297 47.2485 11.7229C47.0485 11.6997 46.8548 11.6874 46.6534 11.692ZM56.9108 11.8109C56.8753 11.8145 56.8397 11.8182 56.8031 11.8219C56.7286 11.8295 56.6541 11.8372 56.5795 11.845C56.4656 11.8569 56.3516 11.8685 56.2376 11.88C56.1649 11.8875 56.0922 11.895 56.0195 11.9025C55.9855 11.9059 55.9516 11.9094 55.9166 11.9129C55.7692 11.9285 55.6318 11.9492 55.4877 11.9851C55.5016 12.2476 55.5155 12.5101 55.5298 12.7806C55.767 12.7585 56.0041 12.7362 56.2413 12.7137C56.3218 12.706 56.4023 12.6985 56.4828 12.691C57.1036 12.6352 57.1036 12.6352 57.7173 12.5294C57.7114 12.4273 57.7052 12.3253 57.6989 12.2232C57.6973 12.1943 57.6956 12.1654 57.6939 12.1356C57.6858 12.0072 57.6743 11.8984 57.6332 11.7758C57.3895 11.772 57.1531 11.7855 56.9108 11.8109ZM51.0706 12.0688C51.0567 12.3314 51.0428 12.5939 51.0285 12.8643C51.4952 12.9137 51.9585 12.911 52.4273 12.9088C52.5081 12.9086 52.5889 12.9084 52.6697 12.9083C52.8658 12.9078 53.062 12.9071 53.2581 12.9062C53.2593 12.8207 53.2601 12.7353 53.2607 12.6498C53.2612 12.6022 53.2617 12.5546 53.2622 12.5055C53.2609 12.3431 53.2609 12.3431 53.216 12.1107C52.508 12.0969 51.8 12.0831 51.0706 12.0688ZM90.4883 14.8741C90.4807 14.9635 90.473 15.0529 90.4651 15.1451C90.4573 15.234 90.4493 15.323 90.4413 15.412C90.4359 15.4727 90.4307 15.5334 90.4255 15.5941C90.3933 15.9749 90.343 16.3436 90.261 16.7172C90.2318 16.8412 90.2318 16.8412 90.2359 16.9675C90.6107 17.0504 90.6107 17.0504 90.9931 17.135C91.2379 16.4041 91.2715 15.6381 91.2455 14.8741C90.9956 14.8741 90.7458 14.8741 90.4883 14.8741ZM89.3945 18.9772C89.3168 19.0741 89.3168 19.0741 89.242 19.1997C88.9283 19.6836 88.5457 20.0847 88.1325 20.4845C88.2812 20.685 88.4331 20.8808 88.5952 21.0707C89.2045 20.7937 89.7909 19.9689 90.1097 19.3959C90.1097 19.3683 90.1097 19.3406 90.1097 19.3122C90.0143 19.256 89.9188 19.2003 89.8231 19.1447C89.7961 19.1287 89.769 19.1127 89.7412 19.0963C89.5788 19.001 89.5788 19.001 89.3945 18.9772ZM86.0337 21.8219C85.9912 21.8393 85.9488 21.8567 85.905 21.8746C85.8363 21.9028 85.8363 21.9028 85.7662 21.9316C85.3048 22.1185 84.8398 22.2776 84.3633 22.4213C84.2025 22.4707 84.043 22.5241 83.8836 22.578C83.9004 22.6083 83.9171 22.6386 83.9344 22.6699C84.0473 22.8749 84.1595 23.0795 84.2622 23.2897C84.5497 23.2702 84.8128 23.2229 85.0878 23.138C85.124 23.1269 85.1603 23.1159 85.1976 23.1045C85.712 22.9431 86.1932 22.7211 86.6601 22.4524C86.59 22.1943 86.4549 21.9716 86.3236 21.7406C86.212 21.7406 86.1369 21.779 86.0337 21.8219ZM85.54 24.6662C85.5109 24.6735 85.4817 24.6808 85.4516 24.6883C85.3769 24.7079 85.3032 24.7313 85.2298 24.7551C85.2159 24.7828 85.202 24.8104 85.1877 24.8389C85.2283 24.93 85.2283 24.93 85.2917 25.0316C85.3155 25.0715 85.3392 25.1115 85.3636 25.1527C85.3897 25.1959 85.4159 25.2392 85.4428 25.2837C85.4968 25.3746 85.5509 25.4654 85.605 25.5562C85.6331 25.6033 85.6613 25.6504 85.6903 25.6989C85.8312 25.9346 85.9694 26.1719 86.108 26.409C86.1578 26.494 86.2076 26.5791 86.2575 26.6641C86.2935 26.7256 86.3296 26.7871 86.3656 26.8486C86.5244 26.7869 86.6713 26.7163 86.8205 26.634C86.8615 26.6115 86.9026 26.5889 86.9449 26.5657C86.9759 26.5485 87.0068 26.5313 87.0387 26.5136C87.0141 26.3489 86.9638 26.2319 86.8785 26.0891C86.8542 26.048 86.8299 26.0069 86.8049 25.9646C86.7788 25.9213 86.7527 25.8779 86.7258 25.8333C86.6722 25.7432 86.6185 25.6532 86.5648 25.5631C86.5249 25.4964 86.5249 25.4964 86.4842 25.4284C86.4147 25.3113 86.3467 25.1935 86.2795 25.0751C86.2606 25.0419 86.2416 25.0088 86.2221 24.9747C86.187 24.9132 86.1522 24.8516 86.1178 24.7898C86.0674 24.6998 86.0674 24.6998 85.987 24.5877C85.8302 24.5877 85.6904 24.6265 85.54 24.6662ZM88.1746 28.4396C88.0644 28.4986 87.9596 28.5595 87.8538 28.6254C87.8241 28.6436 87.7944 28.6617 87.7637 28.6805C87.6902 28.7255 87.6168 28.7709 87.5435 28.8164C87.7224 29.1464 87.9064 29.4733 88.0933 29.7988C88.1381 29.8768 88.1827 29.9549 88.2273 30.033C88.2563 30.0835 88.2853 30.134 88.3142 30.1845C88.34 30.2294 88.3657 30.2743 88.3922 30.3205C88.4698 30.4506 88.5519 30.5754 88.6373 30.7006C88.7101 30.6614 88.7828 30.6221 88.8555 30.5828C88.9163 30.55 88.9163 30.55 88.9783 30.5166C89.0905 30.4546 89.2008 30.3902 89.3104 30.3237C89.2507 30.1647 89.1772 30.0218 89.0918 29.8749C89.0653 29.8292 89.0388 29.7835 89.0115 29.7364C88.9832 29.6879 88.9549 29.6395 88.9265 29.591C88.8978 29.5417 88.869 29.4924 88.8403 29.4431C88.5729 28.8787 88.5729 28.8787 88.1746 28.4396ZM90.1044 32.4591C90.0767 32.475 90.049 32.491 90.0205 32.5075C89.952 32.547 89.8836 32.5867 89.8152 32.6265C89.8432 32.7691 89.8989 32.8774 89.9718 33.0027C89.9945 33.0418 90.0171 33.081 90.0404 33.1213C90.0641 33.1618 90.0879 33.2023 90.1123 33.2441C90.1362 33.2853 90.1601 33.3265 90.1847 33.3689C90.2437 33.4704 90.3028 33.5719 90.3621 33.6733C90.5343 33.6733 90.6468 33.5908 90.7907 33.5058C90.8182 33.4898 90.8457 33.4738 90.8741 33.4574C90.9419 33.4179 91.0096 33.3781 91.0772 33.3383C90.9454 33.0624 90.8051 32.7936 90.6461 32.5323C90.6181 32.4863 90.5901 32.4404 90.5613 32.393C90.5372 32.3595 90.5131 32.3261 90.4883 32.2916C90.3435 32.2916 90.2267 32.3877 90.1044 32.4591Z"/><path fill="#1b5def" d="M74.958 17.977C75.06 18.071 75.16 18.168 75.26 18.265 75.298 18.3 75.335 18.334 75.374 18.37 76.968 19.867 77.6 22.304 77.67 24.416 77.675 24.655 77.675 24.894 77.674 25.134 77.673 25.278 77.674 25.423 77.675 25.567 77.677 28.058 77.022 30.612 75.24 32.439 73.973 33.692 72.258 34.229 70.5 34.225 69.137 34.212 67.854 33.813 66.846 32.877 66.809 32.843 66.772 32.809 66.734 32.774 66.3 32.36 65.972 31.883 65.668 31.37 65.627 31.301 65.585 31.232 65.542 31.161 65.528 34.408 65.514 37.655 65.5 41 63.57 41 61.641 41 59.653 41 59.653 33.028 59.653 25.055 59.653 16.842 61.388 16.842 63.123 16.842 64.911 16.842 64.94 17.015 64.96 17.171 64.969 17.345 64.972 17.418 64.972 17.418 64.976 17.492 64.978 17.545 64.981 17.597 64.983 17.651 64.987 17.734 64.991 17.817 64.995 17.9 65.001 18.016 65.007 18.132 65.012 18.248 65.022 18.45 65.031 18.652 65.041 18.854 65.046 18.961 65.051 19.069 65.056 19.176 65.071 19.474 65.091 19.769 65.121 20.066 65.144 20.021 65.166 19.976 65.189 19.93 65.952 18.441 67.167 17.283 68.781 16.758 70.822 16.138 73.346 16.554 74.958 17.977ZM66.545 21.707C65.512 22.905 65.414 24.654 65.509 26.156 65.592 27.116 65.803 28.133 66.425 28.9 66.464 28.949 66.464 28.949 66.504 28.999 66.932 29.508 67.567 29.85 68.234 29.917 68.364 29.923 68.493 29.924 68.624 29.923 68.693 29.923 68.693 29.923 68.763 29.922 69.525 29.906 70.18 29.649 70.725 29.11 71.402 28.403 71.67 27.421 71.768 26.471 71.773 26.429 71.777 26.386 71.782 26.342 71.915 24.871 71.878 23.044 70.927 21.824 70.451 21.265 69.889 20.949 69.16 20.819 68.129 20.745 67.286 20.953 66.545 21.707ZM116.192 16.758C118.108 16.758 120.024 16.758 121.997 16.758 122 17.483 122.002 18.207 122.004 18.953 122.005 19.413 122.007 19.872 122.008 20.332 122.009 20.574 122.01 20.815 122.011 21.057 122.011 21.087 122.011 21.117 122.011 21.149 122.013 21.636 122.014 22.123 122.015 22.61 122.017 23.111 122.018 23.612 122.02 24.113 122.021 24.394 122.022 24.674 122.023 24.955 122.023 25.22 122.024 25.485 122.026 25.751 122.026 25.847 122.026 25.944 122.026 26.04 121.986 27.64 121.986 27.64 122.671 29.026 123.347 29.576 124.097 29.671 124.942 29.612 125.557 29.532 126.068 29.25 126.499 28.817 126.522 28.795 126.545 28.773 126.569 28.751 127.366 27.937 127.401 26.585 127.4 25.528 127.401 25.432 127.401 25.336 127.402 25.239 127.403 24.981 127.403 24.722 127.403 24.463 127.404 24.192 127.405 23.921 127.406 23.649 127.408 23.195 127.409 22.74 127.41 22.286 127.411 21.818 127.412 21.35 127.413 20.883 127.413 20.839 127.413 20.839 127.413 20.794 127.414 20.54 127.415 20.286 127.416 20.031 127.42 18.94 127.422 17.849 127.424 16.758 129.354 16.758 131.284 16.758 133.272 16.758 133.272 22.382 133.272 28.005 133.272 33.799 131.55 33.799 129.829 33.799 128.055 33.799 128.024 33.643 128.005 33.51 127.997 33.354 127.995 33.307 127.993 33.261 127.99 33.213 127.988 33.163 127.985 33.113 127.983 33.062 127.98 33.01 127.978 32.959 127.975 32.905 127.968 32.768 127.961 32.631 127.954 32.493 127.945 32.301 127.935 32.108 127.925 31.916 127.92 31.814 127.915 31.711 127.91 31.609 127.896 31.333 127.876 31.059 127.845 30.784 127.825 30.823 127.806 30.862 127.786 30.901 127.476 31.505 127.097 32.013 126.625 32.501 126.588 32.542 126.588 32.542 126.551 32.583 125.543 33.664 123.883 34.074 122.46 34.134 120.756 34.191 119.013 33.875 117.726 32.688 116.661 31.631 116.189 30.126 116.187 28.651 116.187 28.604 116.187 28.558 116.187 28.51 116.187 28.459 116.187 28.409 116.187 28.357 116.187 28.218 116.187 28.079 116.187 27.94 116.187 27.79 116.187 27.64 116.187 27.49 116.187 27.23 116.187 26.97 116.188 26.71 116.188 26.334 116.188 25.958 116.188 25.582 116.188 24.973 116.189 24.363 116.189 23.753 116.189 23.161 116.19 22.569 116.19 21.977 116.19 21.94 116.19 21.903 116.19 21.865 116.19 21.576 116.19 21.288 116.19 20.999 116.19 19.585 116.191 18.172 116.192 16.758ZM166.394 18.344C166.518 18.455 166.638 18.569 166.758 18.684 166.791 18.715 166.824 18.746 166.858 18.777 168.249 20.104 168.941 22.159 168.992 24.041 169.01 24.947 169.011 25.869 168.861 26.765 165.016 26.765 161.17 26.765 157.208 26.765 157.462 27.775 157.762 28.863 158.713 29.449 159.363 29.818 160.015 29.957 160.76 29.957 160.789 29.957 160.817 29.957 160.846 29.957 161.739 29.956 162.577 29.773 163.25 29.149 163.549 28.836 163.777 28.461 163.939 28.063 164.258 28.146 164.571 28.24 164.883 28.345 164.928 28.36 164.974 28.375 165.02 28.39 165.166 28.439 165.312 28.488 165.459 28.536 165.56 28.57 165.661 28.604 165.763 28.637 166.565 28.904 167.365 29.175 168.165 29.448 168.326 29.504 168.488 29.558 168.651 29.612 168.351 30.903 167.326 31.991 166.237 32.691 163.736 34.229 160.595 34.464 157.772 33.802 155.671 33.281 153.87 32.039 152.743 30.194 151.417 27.959 151.247 24.925 151.888 22.445 152.255 21.105 152.888 19.952 153.843 18.935 153.876 18.899 153.91 18.863 153.944 18.826 156.577 16.09 161.507 15.712 166.394 18.344ZM158.117 21.476C157.623 22.094 157.362 22.807 157.25 23.583 159.291 23.583 161.332 23.583 163.434 23.583 163.343 23.022 163.343 23.022 163.192 22.484 163.181 22.453 163.171 22.421 163.16 22.389 162.987 21.909 162.749 21.515 162.382 21.154 162.359 21.13 162.336 21.106 162.312 21.081 161.839 20.631 161.129 20.502 160.5 20.508 160.452 20.508 160.404 20.509 160.355 20.509 159.494 20.526 158.702 20.825 158.117 21.476ZM52.291 17.302C52.331 17.322 52.331 17.322 52.373 17.342 53.024 17.657 53.604 18.076 54.12 18.58 54.183 18.642 54.248 18.703 54.313 18.763 55.377 19.769 55.987 21.156 56.298 22.562 56.304 22.591 56.31 22.619 56.317 22.648 56.447 23.279 56.469 23.914 56.466 24.555 56.466 24.681 56.466 24.807 56.467 24.933 56.468 26.213 56.468 26.213 56.329 26.765 52.498 26.765 48.666 26.765 44.718 26.765 44.94 27.812 45.251 28.807 46.176 29.437 47.085 30 48.305 30.109 49.341 29.884 49.897 29.746 50.38 29.481 50.776 29.068 50.802 29.043 50.827 29.018 50.854 28.993 51.113 28.726 51.275 28.387 51.449 28.063 51.751 28.142 52.048 28.23 52.343 28.331 52.404 28.352 52.404 28.352 52.466 28.373 52.598 28.418 52.729 28.463 52.861 28.508 52.953 28.539 53.046 28.57 53.138 28.602 53.331 28.667 53.524 28.733 53.717 28.799 54.163 28.951 54.61 29.102 55.057 29.253 55.283 29.329 55.508 29.405 55.733 29.481 55.808 29.507 55.884 29.532 55.959 29.558 56.012 29.576 56.066 29.594 56.119 29.612 56.106 29.671 56.094 29.731 56.081 29.79 56.074 29.823 56.067 29.856 56.06 29.89 56.021 30.044 55.953 30.179 55.88 30.319 55.865 30.347 55.85 30.376 55.834 30.406 54.973 32.048 53.398 33.082 51.663 33.644 50.698 33.943 49.683 34.108 48.673 34.134 48.637 34.135 48.602 34.136 48.566 34.137 45.932 34.193 43.357 33.538 41.406 31.713 41.185 31.502 40.989 31.28 40.806 31.036 40.789 31.013 40.772 30.991 40.755 30.968 39.943 29.892 39.455 28.671 39.207 27.351 39.201 27.315 39.194 27.279 39.186 27.242 38.954 25.965 38.963 24.48 39.207 23.206 39.218 23.149 39.218 23.149 39.229 23.091 39.387 22.259 39.636 21.428 40.05 20.685 40.09 20.611 40.13 20.537 40.169 20.463 40.505 19.848 40.942 19.305 41.437 18.81 41.458 18.789 41.479 18.768 41.501 18.746 44.167 16.107 49.002 15.706 52.291 17.302ZM45.644 21.448C45.613 21.48 45.582 21.512 45.55 21.545 45.059 22.103 44.838 22.866 44.718 23.583 46.759 23.583 48.8 23.583 50.902 23.583 50.839 23.107 50.839 23.107 50.729 22.646 50.715 22.602 50.715 22.602 50.702 22.557 50.459 21.797 50.051 21.18 49.346 20.778 49.194 20.708 49.044 20.653 48.883 20.61 48.857 20.603 48.83 20.596 48.803 20.588 47.66 20.301 46.454 20.605 45.644 21.448ZM110.385 18.574C111.711 19.779 112.539 21.361 112.882 23.112 112.891 23.159 112.891 23.159 112.9 23.207 113.023 23.889 113.052 24.572 113.05 25.263 113.05 25.325 113.05 25.325 113.05 25.388 113.048 26.022 113.027 26.642 112.91 27.267 112.903 27.305 112.896 27.343 112.889 27.383 112.5 29.425 111.433 31.335 109.696 32.538 109.564 32.626 109.429 32.711 109.293 32.794 109.251 32.82 109.251 32.82 109.208 32.846 106.932 34.223 103.911 34.456 101.351 33.855 100.57 33.658 99.821 33.384 99.112 33.003 99.086 32.99 99.061 32.976 99.034 32.962 97.221 31.994 95.967 30.3 95.359 28.367 95.037 27.285 94.918 26.132 94.947 25.006 94.948 24.977 94.949 24.947 94.95 24.917 95.015 22.669 95.704 20.595 97.261 18.935 97.293 18.901 97.325 18.867 97.358 18.832 97.826 18.349 98.364 17.975 98.944 17.637 98.969 17.623 98.994 17.608 99.02 17.593 102.255 15.705 107.273 15.956 110.385 18.574ZM101.811 21.466C100.948 22.483 100.828 23.97 100.826 25.242 100.826 25.272 100.826 25.301 100.826 25.332 100.828 26.583 100.946 27.97 101.762 28.984 101.785 29.013 101.808 29.043 101.832 29.073 102.269 29.608 102.935 29.894 103.614 29.967 104.411 30.037 105.198 29.9 105.843 29.402 106.796 28.602 107.057 27.353 107.164 26.169 107.176 26.005 107.184 25.841 107.189 25.676 107.191 25.632 107.191 25.632 107.192 25.588 107.231 24.137 107.119 22.438 106.064 21.329 105.479 20.765 104.696 20.551 103.895 20.559 103.08 20.606 102.384 20.87 101.811 21.466ZM144.546 11.357C144.546 13.139 144.546 14.922 144.546 16.758 146.225 16.758 147.905 16.758 149.636 16.758 149.636 18.126 149.636 19.494 149.636 20.903 147.956 20.903 146.276 20.903 144.546 20.903 144.551 22.147 144.551 22.147 144.557 23.39 144.559 23.897 144.562 24.404 144.563 24.912 144.565 25.281 144.566 25.651 144.569 26.02 144.57 26.216 144.57 26.411 144.571 26.607 144.572 26.791 144.573 26.975 144.574 27.16 144.574 27.227 144.574 27.294 144.574 27.362 144.576 28.057 144.584 28.826 145.093 29.361 145.562 29.814 146.193 29.953 146.829 29.947 147.649 29.926 148.363 29.771 149.07 29.338 149.173 29.277 149.173 29.277 149.299 29.235 149.453 29.957 149.573 30.683 149.694 31.411 149.72 31.572 149.747 31.733 149.774 31.894 149.826 32.208 149.878 32.522 149.93 32.836 149.857 32.883 149.783 32.93 149.709 32.977 149.668 33.003 149.627 33.029 149.584 33.056 147.596 34.3 144.8 34.378 142.571 33.872 141.76 33.675 140.965 33.356 140.339 32.794 140.292 32.756 140.292 32.756 140.245 32.718 139.278 31.921 138.87 30.681 138.747 29.477 138.675 28.681 138.687 27.882 138.69 27.083 138.69 26.865 138.69 26.647 138.69 26.429 138.691 26.018 138.691 25.607 138.692 25.196 138.693 24.728 138.694 24.259 138.694 23.791 138.695 22.828 138.696 21.866 138.698 20.903 137.74 20.903 136.782 20.903 135.796 20.903 135.796 19.535 135.796 18.167 135.796 16.758 136.753 16.758 137.711 16.758 138.698 16.758 138.698 15.501 138.698 14.244 138.698 12.948 139.289 12.787 139.88 12.625 140.489 12.459 142.24 11.98 142.24 11.98 143.991 11.498 144.027 11.488 144.063 11.478 144.1 11.467 144.165 11.449 144.23 11.431 144.295 11.413 144.499 11.357 144.499 11.357 144.546 11.357ZM0 7.17C2.818 7.17 5.636 7.17 8.54 7.17 8.121 8.005 7.691 8.828 7.225 9.637 7.148 9.771 7.072 9.906 6.995 10.04 6.402 11.08 5.802 12.117 5.135 13.112 5.054 13.232 4.975 13.352 4.895 13.472 3.878 15.005 3.878 15.005 3.323 15.669 3.505 16.015 3.692 16.355 3.889 16.693 4.192 17.216 4.474 17.75 4.757 18.285 4.838 18.438 4.92 18.59 5.003 18.742 5.949 20.479 6.506 22.371 6.949 24.286 6.956 24.314 6.962 24.342 6.969 24.371 6.981 24.426 6.993 24.48 7.005 24.535 7.018 24.596 7.032 24.656 7.047 24.716 7.139 25.129 7.121 25.548 7.119 25.969 7.119 26.057 7.119 26.146 7.119 26.235 7.119 26.475 7.119 26.715 7.118 26.954 7.118 27.206 7.117 27.457 7.117 27.708 7.117 28.183 7.116 28.657 7.116 29.132 7.114 29.775 7.114 30.417 7.113 31.059 7.113 32.07 7.111 33.081 7.109 34.092 4.763 34.092 2.417 34.092 0 34.092 0 25.208 0 16.323 0 7.17Z"/><path fill="#1b5def" d="M11.148 1.937C11.162 1.937 11.176 1.937 11.19 1.937 11.19 2.012 11.19 2.012 11.191 2.089 11.193 2.769 11.196 3.449 11.201 4.129 11.201 4.158 11.201 4.186 11.201 4.215 11.218 6.821 11.278 9.425 11.343 12.029 11.344 12.067 11.345 12.105 11.346 12.144 11.355 12.507 11.364 12.869 11.373 13.231 11.377 13.361 11.38 13.491 11.383 13.622 11.386 13.709 11.388 13.797 11.39 13.885 11.398 14.173 11.403 14.46 11.401 14.749 11.366 14.752 11.331 14.756 11.296 14.759 10.867 14.813 10.506 14.922 10.206 15.245 9.885 15.674 9.749 16.145 9.802 16.675 9.908 17.152 10.146 17.572 10.559 17.847 11.03 18.082 11.455 18.174 11.968 18.033 12.397 17.889 12.72 17.646 12.957 17.261 13.2 16.765 13.229 16.323 13.052 15.8 12.884 15.386 12.581 15.053 12.169 14.868 12.064 14.829 11.962 14.807 11.852 14.786 11.815 14.779 11.777 14.772 11.739 14.764 11.711 14.759 11.682 14.754 11.653 14.749 11.586 13.46 11.533 12.171 11.487 10.881 11.486 10.831 11.484 10.781 11.482 10.73 11.415 8.832 11.367 6.934 11.327 5.035 11.326 5.003 11.326 4.97 11.325 4.937 11.316 4.502 11.307 4.067 11.298 3.632 11.297 3.575 11.295 3.518 11.294 3.461 11.291 3.276 11.287 3.092 11.283 2.907 11.282 2.862 11.281 2.817 11.28 2.77 11.275 2.492 11.273 2.215 11.274 1.937 11.358 1.978 11.358 1.978 11.39 2.049 11.399 2.08 11.409 2.111 11.419 2.142 11.43 2.177 11.442 2.213 11.453 2.249 11.466 2.288 11.478 2.327 11.49 2.367 11.517 2.45 11.544 2.534 11.571 2.618 11.585 2.663 11.599 2.707 11.614 2.753 12.316 4.953 13.101 7.124 14.236 9.143 14.308 9.272 14.379 9.401 14.45 9.531 14.83 10.222 15.232 10.897 15.649 11.566 15.674 11.606 15.698 11.645 15.723 11.685 16.042 12.195 16.375 12.695 16.709 13.194 16.728 13.223 16.747 13.251 16.767 13.281 17.134 13.829 17.507 14.374 17.89 14.911 17.91 14.94 17.931 14.97 17.953 15 18.044 15.129 18.135 15.256 18.23 15.381 18.257 15.418 18.285 15.454 18.313 15.492 18.336 15.522 18.359 15.552 18.383 15.583 18.443 15.705 18.428 15.75 18.384 15.879 18.326 16.009 18.262 16.135 18.197 16.261 18.178 16.298 18.159 16.336 18.14 16.374 18.035 16.58 17.927 16.784 17.817 16.987 16.765 18.939 15.927 21.04 15.489 23.217 15.481 23.257 15.473 23.297 15.464 23.338 15.38 23.783 15.355 24.215 15.313 24.671 12.883 24.671 10.454 24.671 7.951 24.671 7.857 24.297 7.857 24.297 7.823 24.122 7.44 22.197 6.784 20.327 5.932 18.559 5.914 18.523 5.897 18.487 5.879 18.45 5.432 17.522 4.898 16.64 4.375 15.753 4.495 15.534 4.63 15.342 4.785 15.146 5.737 13.928 6.581 12.605 7.362 11.273 7.384 11.237 7.405 11.2 7.428 11.162 8.5 9.33 9.336 7.415 10.013 5.408 10.055 5.283 10.098 5.157 10.141 5.032 10.49 4.004 10.83 2.974 11.148 1.937ZM38.24 17.135C38.176 17.67 38.111 18.205 38.047 18.74 38.017 18.989 37.987 19.237 37.957 19.486 37.928 19.726 37.899 19.966 37.87 20.206 37.86 20.298 37.849 20.389 37.838 20.48 37.779 20.971 37.719 21.461 37.651 21.95 37.603 21.938 37.555 21.925 37.506 21.912 36.082 21.543 34.616 21.51 33.308 22.241 33.126 22.349 32.969 22.478 32.813 22.62 32.77 22.657 32.77 22.657 32.726 22.695 32.048 23.315 31.712 24.284 31.673 25.184 31.671 25.282 31.671 25.38 31.671 25.479 31.671 25.516 31.67 25.553 31.67 25.592 31.669 25.715 31.669 25.839 31.669 25.963 31.668 26.052 31.668 26.141 31.668 26.231 31.666 26.472 31.665 26.713 31.665 26.955 31.664 27.207 31.663 27.459 31.661 27.712 31.659 28.19 31.657 28.667 31.656 29.145 31.653 29.791 31.65 30.437 31.648 31.083 31.643 32.1 31.639 33.117 31.635 34.134 29.706 34.134 27.776 34.134 25.788 34.134 25.788 28.51 25.788 22.887 25.788 17.093 27.495 17.093 29.203 17.093 30.962 17.093 31.046 18.238 31.131 19.382 31.215 20.526 31.224 20.505 31.233 20.484 31.243 20.462 31.286 20.365 31.33 20.267 31.373 20.17 31.388 20.136 31.403 20.103 31.418 20.069 31.995 18.773 32.913 17.643 34.266 17.107 35.481 16.649 37.06 16.539 38.24 17.135Z"/><path fill="#1b5def" d="M14.1771 7.25363C14.5673 7.2749 14.947 7.31689 15.3314 7.38709C15.3822 7.39632 15.4331 7.40556 15.4854 7.41508C17.1274 7.72224 18.8003 8.31002 20.0666 9.43082C20.1008 9.46029 20.135 9.48975 20.1702 9.52012C20.2776 9.61424 20.3828 9.71033 20.4873 9.80764C20.5272 9.84456 20.567 9.88147 20.6081 9.91951C22.0874 11.3214 22.8317 13.4305 22.8938 15.4333C22.8989 15.6742 22.8993 15.9151 22.8983 16.156C22.8982 16.2197 22.8982 16.2197 22.8981 16.2847C22.8899 18.6635 22.1669 20.8387 20.4732 22.5512C20.3066 22.7139 20.1264 22.8564 19.9404 22.9964C19.9013 23.0271 19.8621 23.0579 19.8218 23.0896C19.4985 23.3393 19.1592 23.5486 18.8046 23.75C18.768 23.7713 18.768 23.7713 18.7306 23.793C18.0195 24.2044 16.944 24.7549 16.1123 24.7549C16.4796 21.6313 17.8284 18.6007 19.3158 15.8553C19.3415 15.8077 19.3671 15.7602 19.3936 15.7112C19.4314 15.6444 19.4314 15.6444 19.47 15.5762C19.5266 15.4673 19.5266 15.4673 19.5157 15.3708C19.468 15.2724 19.409 15.2068 19.3331 15.1276C19.1124 14.8878 18.9161 14.6314 18.7205 14.3714C18.6982 14.3419 18.676 14.3124 18.653 14.282C18.2831 13.7905 17.9288 13.29 17.5846 12.7803C17.5523 12.7325 17.5523 12.7325 17.5192 12.6837C16.5527 11.2532 15.6432 9.78653 14.7661 8.30035C14.7372 8.25145 14.7083 8.20255 14.6794 8.15365C14.5959 8.01249 14.5127 7.8712 14.4295 7.72989C14.404 7.68668 14.3785 7.64347 14.3523 7.59895C14.3292 7.55958 14.3061 7.52021 14.2823 7.47966C14.2619 7.44497 14.2415 7.41029 14.2205 7.37455C14.1771 7.2955 14.1771 7.2955 14.1771 7.25363Z"/><path fill="#000a3a" d="M11.274 1.937C11.358 1.978 11.358 1.978 11.389 2.049 11.399 2.08 11.409 2.111 11.419 2.142 11.43 2.177 11.442 2.213 11.453 2.249 11.465 2.288 11.478 2.327 11.49 2.367 11.517 2.45 11.544 2.534 11.571 2.618 11.585 2.663 11.599 2.707 11.614 2.753 11.855 3.507 12.106 4.257 12.379 5.001 12.392 5.039 12.406 5.077 12.421 5.115 12.625 5.67 12.838 6.222 13.064 6.768 13.083 6.815 13.103 6.862 13.123 6.91 13.139 6.951 13.156 6.991 13.174 7.033 13.209 7.128 13.209 7.128 13.209 7.212 12.612 7.212 12.015 7.212 11.4 7.212 11.352 6.442 11.352 6.442 11.346 6.093 11.345 6.033 11.345 6.033 11.343 5.972 11.341 5.844 11.338 5.715 11.336 5.586 11.334 5.495 11.332 5.404 11.33 5.314 11.327 5.124 11.323 4.935 11.319 4.746 11.315 4.505 11.31 4.263 11.305 4.022 11.3 3.789 11.296 3.557 11.291 3.325 11.29 3.282 11.289 3.238 11.289 3.193 11.286 3.068 11.284 2.944 11.281 2.819 11.281 2.783 11.28 2.747 11.279 2.71 11.274 2.452 11.273 2.194 11.274 1.937ZM11.148 1.937C11.162 1.937 11.176 1.937 11.19 1.937 11.19 3.677 11.19 5.418 11.19 7.212 10.607 7.212 10.024 7.212 9.423 7.212 9.478 6.969 9.528 6.76 9.612 6.53 9.633 6.471 9.654 6.412 9.675 6.353 9.686 6.323 9.697 6.292 9.709 6.26 9.948 5.599 10.176 4.934 10.399 4.268 10.413 4.226 10.427 4.183 10.442 4.139 10.686 3.408 10.922 2.674 11.148 1.937Z"/></svg>